<svg id="Layer_1" data-name="Layer 1" xmlns="http://www.w3.org/2000/svg" viewBox="0 0 85.141 77.481">
  <defs>
    <style>
      .cls-1 {
        fill: #848484;
      }
    </style>
  </defs>
  <title>dfb0c691-a224-4b78-a1f8-1b0f6a4d6485</title>
  <g>
    <path class="cls-1" d="M74.521,8.5a2.128,2.128,0,0,1,2.116,2.116V66.861a2.128,2.128,0,0,1-2.116,2.116,2.032,2.032,0,0,1-1.034-.3L24.781,40.559a2.1,2.1,0,0,1,0-3.637L73.487,8.8a2.032,2.032,0,0,1,1.034-.3m0-8.5a10.517,10.517,0,0,0-5.286,1.436L20.529,29.557a10.6,10.6,0,0,0,0,18.367l48.706,28.12a10.582,10.582,0,0,0,15.906-9.183V10.62A10.618,10.618,0,0,0,74.521,0Z"/>
    <rect class="cls-1" y="0.351" width="9.245" height="76.778" rx="4.623" ry="4.623"/>
  </g>
</svg>
