<svg id="Layer_1" data-name="Layer 1" xmlns="http://www.w3.org/2000/svg" viewBox="0 0 46.672 37.932">
  <defs>
    <style>
      .cls-1 {
        fill: none;
        stroke: #535353;
        stroke-miterlimit: 10;
        stroke-width: 5.669px;
      }

      .cls-2 {
        fill: #535353;
      }
    </style>
  </defs>
  <title>b4aa6ff2-85f0-4e94-b1ba-644cbc0c76ea</title>
  <path class="cls-1" d="M2.848,2.846h8.339a2.582,2.582,0,0,1,2.481,1.865l4.753,16.454a3.75,3.75,0,0,0,3.6,2.709H35.014a4.324,4.324,0,0,0,3.992-2.661l4.66-11.183A2.209,2.209,0,0,0,41.68,6.974l-16-.389"/>
  <path class="cls-2" d="M5.69,2.85A2.845,2.845,0,1,1,2.85,0,2.838,2.838,0,0,1,5.69,2.85Z"/>
  <path class="cls-2" d="M23.343,34.047a3.891,3.891,0,1,1-3.885-3.9A3.882,3.882,0,0,1,23.343,34.047Z"/>
  <path class="cls-2" d="M36.83,34.047a3.891,3.891,0,1,1-3.885-3.9A3.882,3.882,0,0,1,36.83,34.047Z"/>
</svg>
