<svg id="Layer_1" data-name="Layer 1" xmlns="http://www.w3.org/2000/svg" viewBox="0 0 136.07 125.256">
  <defs>
    <style>
      .cls-1 {
        fill: #848484;
      }
    </style>
  </defs>
  <title>618c0378-2bc5-4426-97a3-c975ec3ae1fd</title>
  <g>
    <rect class="cls-1" x="106.011" y="11.273" width="9.245" height="102.71" rx="4.623" ry="4.623" transform="translate(221.268 125.256) rotate(180)"/>
    <rect class="cls-1" x="126.736" width="9.333" height="125.256" rx="4.623" ry="4.623" transform="translate(262.806 125.256) rotate(180)"/>
    <path class="cls-1" d="M83.4,9.443V115.518L8.5,74.159V40.807L83.4,9.443M85.377.088a8.115,8.115,0,0,0-3.132.621L3.383,33.732A4.958,4.958,0,0,0,0,38.092V76.639a4.733,4.733,0,0,0,2.7,4.028l78.862,43.547a7.86,7.86,0,0,0,3.8.954c3.383,0,6.546-2.043,6.546-4.982V5.068c0-2.9-3.117-4.981-6.53-4.98Z" transform="translate(0)"/>
  </g>
</svg>
