<svg id="Layer_1" data-name="Layer 1" xmlns="http://www.w3.org/2000/svg" viewBox="0 0 85.951 78.365">
  <defs>
    <style>
      .cls-1 {
        fill: #848484;
      }
    </style>
  </defs>
  <title>951431e7-7612-45b2-bd93-0ed8101b0177</title>
  <g>
    <path class="cls-1" d="M10.62,8.5a2.032,2.032,0,0,1,1.034.3L61.126,37.364a2.1,2.1,0,0,1,0,3.637L11.654,69.564a2.032,2.032,0,0,1-1.034.3A2.128,2.128,0,0,1,8.5,67.745V10.62A2.128,2.128,0,0,1,10.62,8.5m0-8.5A10.617,10.617,0,0,0,0,10.62V67.745a10.582,10.582,0,0,0,15.906,9.183L65.378,48.366a10.6,10.6,0,0,0,0-18.367L15.906,1.436A10.52,10.52,0,0,0,10.62,0Z" transform="translate(0)"/>
    <rect class="cls-1" x="76.617" y="0.428" width="9.333" height="77.508" rx="4.623" ry="4.623" transform="translate(162.568 78.365) rotate(180)"/>
  </g>
</svg>
