<svg id="Layer_1" data-name="Layer 1" xmlns="http://www.w3.org/2000/svg" viewBox="0 0 130.482 77.84">
  <defs>
    <style>
      .cls-1 {
        fill: #848484;
        fill-rule: evenodd;
      }

      .cls-2 {
        fill: none;
        stroke: #848484;
        stroke-miterlimit: 10;
        stroke-width: 8.504px;
      }
    </style>
  </defs>
  <title>6ed74380-31cd-4d6e-ae8d-f713af5810f0</title>
  <g>
    <path class="cls-1" d="M129.311,12.135l-9.666,7a2.833,2.833,0,0,1-4.5-2.294V2.838a2.833,2.833,0,0,1,4.5-2.294l9.666,7A2.833,2.833,0,0,1,129.311,12.135Z"/>
    <path class="cls-1" d="M129.311,70.293l-9.666,7A2.833,2.833,0,0,1,115.15,75V61a2.833,2.833,0,0,1,4.5-2.294l9.666,7A2.833,2.833,0,0,1,129.311,70.293Z"/>
    <path class="cls-2" d="M0,9.443c32.265,0,58.421,12.671,58.421,28.3S32.265,66.047,0,66.047"/>
    <path class="cls-2" d="M116.841,66.047c-32.265,0-58.421-12.671-58.421-28.3s26.156-28.3,58.421-28.3"/>
  </g>
</svg>
